<svg width="329.625" height="23.408" viewBox="0 0 329.625 23.408" xmlns="http://www.w3.org/2000/svg"><g id="svgGroup" stroke-linecap="round" fill-rule="evenodd" font-size="9pt" stroke="#000" stroke-width="0.25mm" fill="#000" style="stroke:#000;stroke-width:0.25mm;fill:#000"><path d="M 224.175 0.904 L 225.225 0.929 Q 226.075 0.979 226.6 0.979 A 10.884 10.884 0 0 0 226.911 0.974 Q 227.26 0.964 227.732 0.934 A 36.84 36.84 0 0 0 227.8 0.929 L 228.825 0.904 A 0.033 0.033 0 0 1 228.854 0.922 Q 228.875 0.956 228.875 1.054 A 0.687 0.687 0 0 1 228.874 1.101 Q 228.866 1.204 228.825 1.204 Q 228.149 1.204 227.712 1.449 A 1.392 1.392 0 0 0 227.325 1.767 A 1.716 1.716 0 0 0 227.027 2.303 Q 226.856 2.782 226.85 3.484 A 5.976 5.976 0 0 0 226.85 3.529 L 226.85 10.679 A 8.724 8.724 0 0 1 226.668 12.517 Q 226.417 13.683 225.819 14.562 A 4.993 4.993 0 0 1 225.275 15.229 A 5.233 5.233 0 0 1 222.368 16.74 A 7.533 7.533 0 0 1 221.025 16.854 A 7.835 7.835 0 0 1 219.395 16.692 A 5.987 5.987 0 0 1 217.8 16.117 Q 216.425 15.379 215.675 14.029 A 5.934 5.934 0 0 1 214.991 11.921 A 7.592 7.592 0 0 1 214.925 10.904 L 214.925 2.929 A 5.518 5.518 0 0 0 214.913 2.549 Q 214.888 2.188 214.811 1.954 A 1.137 1.137 0 0 0 214.763 1.829 Q 214.602 1.483 214.147 1.345 A 1.601 1.601 0 0 0 214.138 1.342 A 2.442 2.442 0 0 0 213.837 1.275 Q 213.507 1.222 213.026 1.208 A 11.997 11.997 0 0 0 212.7 1.204 A 0.033 0.033 0 0 1 212.671 1.186 Q 212.65 1.152 212.65 1.054 A 0.687 0.687 0 0 1 212.651 1.007 Q 212.659 0.904 212.7 0.904 L 213.9 0.929 Q 214.95 0.979 215.575 0.979 Q 216.179 0.979 217.083 0.939 A 65.031 65.031 0 0 0 217.3 0.929 L 218.45 0.904 A 0.06 0.06 0 0 1 218.506 0.941 Q 218.521 0.97 218.524 1.022 A 0.505 0.505 0 0 1 218.525 1.054 A 0.45 0.45 0 0 1 218.522 1.104 Q 218.511 1.204 218.45 1.204 Q 217.68 1.204 217.237 1.298 A 1.95 1.95 0 0 0 217.025 1.354 A 1.236 1.236 0 0 0 216.739 1.489 A 0.868 0.868 0 0 0 216.413 1.867 A 1.43 1.43 0 0 0 216.329 2.124 Q 216.267 2.383 216.254 2.756 A 6.126 6.126 0 0 0 216.25 2.979 L 216.25 10.029 Q 216.25 12.954 217.625 14.542 A 4.491 4.491 0 0 0 220.341 16.036 A 6.612 6.612 0 0 0 221.475 16.129 Q 223.75 16.129 225.025 14.692 A 4.779 4.779 0 0 0 226.037 12.791 Q 226.242 12.065 226.287 11.2 A 9.561 9.561 0 0 0 226.3 10.704 L 226.3 3.529 A 4.479 4.479 0 0 0 226.259 2.905 Q 226.156 2.171 225.788 1.767 A 1.571 1.571 0 0 0 225.134 1.347 Q 224.729 1.204 224.175 1.204 A 0.06 0.06 0 0 1 224.119 1.167 Q 224.104 1.138 224.101 1.086 A 0.505 0.505 0 0 1 224.1 1.054 A 0.45 0.45 0 0 1 224.103 1.004 Q 224.114 0.904 224.175 0.904 Z M 300.65 7.529 L 300.8 7.729 A 6.055 6.055 0 0 0 299.495 8.501 A 4.896 4.896 0 0 0 298.513 9.529 Q 297.7 10.679 297.7 12.154 Q 297.7 13.254 298.225 14.242 Q 298.75 15.229 299.7 15.829 Q 300.65 16.429 301.825 16.429 A 3.927 3.927 0 0 0 302.96 16.272 A 3.159 3.159 0 0 0 304.188 15.579 A 2.791 2.791 0 0 0 305.063 13.959 A 4.089 4.089 0 0 0 305.125 13.229 A 4.19 4.19 0 0 0 305.001 12.186 A 3.3 3.3 0 0 0 304.55 11.167 Q 303.975 10.304 303.15 9.742 Q 302.551 9.333 301.688 8.878 A 26.762 26.762 0 0 0 301 8.529 A 57.715 57.715 0 0 1 300.436 8.22 Q 299.644 7.779 299.175 7.479 Q 298.55 7.079 298.113 6.492 A 2.21 2.21 0 0 1 297.675 5.177 A 2.715 2.715 0 0 1 297.675 5.129 A 2.494 2.494 0 0 1 297.83 4.238 A 2.264 2.264 0 0 1 298.275 3.517 A 3.726 3.726 0 0 1 299.605 2.584 A 4.402 4.402 0 0 1 299.775 2.517 A 5.187 5.187 0 0 1 301.238 2.191 A 4.81 4.81 0 0 1 301.575 2.179 A 3.97 3.97 0 0 1 302.518 2.287 A 3.249 3.249 0 0 1 303.263 2.567 Q 304 2.954 304.4 3.554 A 2.436 2.436 0 0 1 304.709 4.196 A 2.077 2.077 0 0 1 304.8 4.804 Q 304.8 5.679 304.088 6.554 Q 303.502 7.273 302.486 7.925 A 10.994 10.994 0 0 1 302.025 8.204 L 301.9 8.054 A 7.22 7.22 0 0 0 302.474 7.55 Q 302.9 7.131 303.15 6.717 Q 303.55 6.054 303.55 5.204 A 3.221 3.221 0 0 0 303.444 4.355 A 2.378 2.378 0 0 0 302.825 3.279 A 2.449 2.449 0 0 0 301.225 2.563 A 3.292 3.292 0 0 0 300.975 2.554 A 2.807 2.807 0 0 0 300.277 2.637 A 2.079 2.079 0 0 0 299.45 3.054 A 1.63 1.63 0 0 0 298.875 4.105 A 2.371 2.371 0 0 0 298.85 4.454 Q 298.85 5.204 299.3 5.792 Q 299.75 6.379 300.4 6.804 A 15.345 15.345 0 0 0 300.855 7.089 Q 301.409 7.424 302.2 7.854 A 32.116 32.116 0 0 1 303.066 8.319 Q 303.45 8.533 303.777 8.733 A 13.941 13.941 0 0 1 304.375 9.117 Q 305.2 9.679 305.775 10.517 A 3.264 3.264 0 0 1 306.318 11.982 A 4.201 4.201 0 0 1 306.35 12.504 Q 306.35 13.729 305.638 14.729 A 4.761 4.761 0 0 1 303.92 16.201 A 5.647 5.647 0 0 1 303.738 16.292 A 5.909 5.909 0 0 1 301.521 16.843 A 6.979 6.979 0 0 1 301.125 16.854 A 6.169 6.169 0 0 1 299.781 16.714 A 4.943 4.943 0 0 1 298.6 16.292 A 4.635 4.635 0 0 1 297.534 15.552 A 3.974 3.974 0 0 1 296.9 14.792 A 3.74 3.74 0 0 1 296.362 13.465 A 3.542 3.542 0 0 1 296.3 12.804 A 4.322 4.322 0 0 1 296.879 10.655 A 5.144 5.144 0 0 1 296.938 10.554 Q 297.575 9.479 298.588 8.692 A 8.206 8.206 0 0 1 299.738 7.936 A 6.651 6.651 0 0 1 300.65 7.529 Z M 150.35 14.429 L 144.7 2.279 L 145.175 1.854 L 140.35 13.454 A 6.522 6.522 0 0 0 140.167 13.95 Q 140.008 14.447 140 14.815 A 1.779 1.779 0 0 0 140 14.854 A 1.364 1.364 0 0 0 140.067 15.294 Q 140.195 15.672 140.569 15.887 A 1.433 1.433 0 0 0 140.6 15.904 A 2.094 2.094 0 0 0 141.041 16.076 Q 141.498 16.201 142.169 16.224 A 9.051 9.051 0 0 0 142.475 16.229 A 0.147 0.147 0 0 1 142.529 16.238 Q 142.593 16.263 142.599 16.358 A 0.323 0.323 0 0 1 142.6 16.379 A 0.263 0.263 0 0 1 142.595 16.435 Q 142.577 16.515 142.503 16.527 A 0.175 0.175 0 0 1 142.475 16.529 Q 142.13 16.529 141.551 16.5 A 46.21 46.21 0 0 1 141.175 16.479 Q 140.225 16.429 139.525 16.429 A 18.995 18.995 0 0 0 139.025 16.436 Q 138.803 16.442 138.559 16.453 A 34.749 34.749 0 0 0 138.05 16.479 Q 137.3 16.529 136.825 16.529 A 0.147 0.147 0 0 1 136.771 16.52 Q 136.707 16.495 136.701 16.4 A 0.323 0.323 0 0 1 136.7 16.379 A 0.263 0.263 0 0 1 136.705 16.323 Q 136.723 16.243 136.797 16.231 A 0.175 0.175 0 0 1 136.825 16.229 Q 137.525 16.229 138.013 15.979 Q 138.394 15.783 138.745 15.342 A 4.084 4.084 0 0 0 138.938 15.079 A 6.377 6.377 0 0 0 139.217 14.619 Q 139.531 14.054 139.875 13.229 L 145.1 0.654 A 0.161 0.161 0 0 1 145.201 0.586 A 0.266 0.266 0 0 1 145.263 0.579 A 0.256 0.256 0 0 1 145.31 0.583 Q 145.336 0.588 145.354 0.599 A 0.097 0.097 0 0 1 145.4 0.654 L 151.2 13.104 Q 151.674 14.155 152.063 14.79 A 6.407 6.407 0 0 0 152.225 15.042 A 4.888 4.888 0 0 0 152.505 15.417 Q 152.812 15.786 153.113 15.967 A 1.844 1.844 0 0 0 153.863 16.215 A 2.325 2.325 0 0 0 154.125 16.229 A 0.092 0.092 0 0 1 154.177 16.244 Q 154.213 16.268 154.222 16.332 A 0.346 0.346 0 0 1 154.225 16.379 A 0.333 0.333 0 0 1 154.221 16.432 Q 154.205 16.529 154.125 16.529 Q 153.675 16.529 152.675 16.479 Q 151.742 16.43 151.291 16.429 A 8.363 8.363 0 0 0 151.275 16.429 Q 150.805 16.429 150.076 16.469 A 44.249 44.249 0 0 0 149.9 16.479 Q 149.1 16.529 148.7 16.529 A 0.092 0.092 0 0 1 148.648 16.515 Q 148.612 16.491 148.603 16.426 A 0.346 0.346 0 0 1 148.6 16.379 A 0.333 0.333 0 0 1 148.604 16.326 Q 148.62 16.229 148.7 16.229 A 9.008 9.008 0 0 0 149.177 16.217 Q 149.838 16.182 150.175 16.042 Q 150.613 15.859 150.625 15.429 A 0.879 0.879 0 0 0 150.625 15.404 A 1.259 1.259 0 0 0 150.601 15.172 Q 150.557 14.94 150.433 14.628 A 5.785 5.785 0 0 0 150.35 14.429 Z M 68.35 2.254 L 68.65 5.104 Q 68.65 5.179 68.513 5.192 A 0.451 0.451 0 0 1 68.493 5.193 Q 68.373 5.199 68.35 5.129 Q 67.8 3.054 66.525 2.017 A 4.453 4.453 0 0 0 64.729 1.15 Q 64.074 0.993 63.306 0.98 A 8.149 8.149 0 0 0 63.175 0.979 A 8.86 8.86 0 0 0 61.124 1.207 A 7.059 7.059 0 0 0 59.313 1.904 Q 57.65 2.829 56.738 4.542 A 7.687 7.687 0 0 0 55.933 7.032 A 10.046 10.046 0 0 0 55.825 8.529 Q 55.825 10.654 56.838 12.492 Q 57.85 14.329 59.563 15.417 Q 61.275 16.504 63.225 16.504 A 6.337 6.337 0 0 0 65.372 16.164 Q 67.196 15.51 68.095 13.598 A 7.602 7.602 0 0 0 68.525 12.429 Q 68.525 12.379 68.65 12.379 Q 68.825 12.379 68.825 12.454 L 68.625 15.104 A 3.35 3.35 0 0 1 68.615 15.209 Q 68.596 15.372 68.567 15.445 A 0.183 0.183 0 0 1 68.55 15.479 Q 68.5 15.554 68.35 15.654 A 12.676 12.676 0 0 1 67.244 16.166 Q 66.552 16.444 65.913 16.592 Q 64.957 16.812 63.694 16.847 A 17.669 17.669 0 0 1 63.2 16.854 A 11.151 11.151 0 0 1 60.596 16.561 A 9.173 9.173 0 0 1 58.563 15.817 Q 56.525 14.779 55.375 12.892 A 7.905 7.905 0 0 1 54.265 9.453 A 9.813 9.813 0 0 1 54.225 8.554 A 8.16 8.16 0 0 1 54.569 6.148 A 7.086 7.086 0 0 1 55.375 4.404 A 7.613 7.613 0 0 1 58.428 1.683 A 9.082 9.082 0 0 1 58.563 1.617 A 9.865 9.865 0 0 1 61.75 0.709 A 12.332 12.332 0 0 1 63.175 0.629 Q 64.317 0.629 65.172 0.743 A 7.956 7.956 0 0 1 65.875 0.867 Q 66.917 1.102 68.082 1.695 A 13.135 13.135 0 0 1 68.1 1.704 A 1.651 1.651 0 0 1 68.164 1.749 Q 68.256 1.817 68.286 1.864 A 0.143 0.143 0 0 1 68.288 1.867 A 0.166 0.166 0 0 1 68.302 1.903 Q 68.33 1.995 68.35 2.254 Z M 104.675 2.254 L 104.975 5.104 Q 104.975 5.179 104.838 5.192 A 0.451 0.451 0 0 1 104.818 5.193 Q 104.698 5.199 104.675 5.129 Q 104.125 3.054 102.85 2.017 A 4.453 4.453 0 0 0 101.054 1.15 Q 100.399 0.993 99.631 0.98 A 8.149 8.149 0 0 0 99.5 0.979 A 8.86 8.86 0 0 0 97.449 1.207 A 7.059 7.059 0 0 0 95.638 1.904 Q 93.975 2.829 93.063 4.542 A 7.687 7.687 0 0 0 92.258 7.032 A 10.046 10.046 0 0 0 92.15 8.529 Q 92.15 10.654 93.163 12.492 Q 94.175 14.329 95.888 15.417 Q 97.6 16.504 99.55 16.504 A 6.337 6.337 0 0 0 101.697 16.164 Q 103.521 15.51 104.42 13.598 A 7.602 7.602 0 0 0 104.85 12.429 Q 104.85 12.379 104.975 12.379 Q 105.15 12.379 105.15 12.454 L 104.95 15.104 A 3.35 3.35 0 0 1 104.94 15.209 Q 104.921 15.372 104.892 15.445 A 0.183 0.183 0 0 1 104.875 15.479 Q 104.825 15.554 104.675 15.654 A 12.676 12.676 0 0 1 103.569 16.166 Q 102.877 16.444 102.238 16.592 Q 101.282 16.812 100.019 16.847 A 17.669 17.669 0 0 1 99.525 16.854 A 11.151 11.151 0 0 1 96.921 16.561 A 9.173 9.173 0 0 1 94.888 15.817 Q 92.85 14.779 91.7 12.892 A 7.905 7.905 0 0 1 90.59 9.453 A 9.813 9.813 0 0 1 90.55 8.554 A 8.16 8.16 0 0 1 90.894 6.148 A 7.086 7.086 0 0 1 91.7 4.404 A 7.613 7.613 0 0 1 94.753 1.683 A 9.082 9.082 0 0 1 94.888 1.617 A 9.865 9.865 0 0 1 98.075 0.709 A 12.332 12.332 0 0 1 99.5 0.629 Q 100.642 0.629 101.497 0.743 A 7.956 7.956 0 0 1 102.2 0.867 Q 103.242 1.102 104.407 1.695 A 13.135 13.135 0 0 1 104.425 1.704 A 1.651 1.651 0 0 1 104.489 1.749 Q 104.581 1.817 104.611 1.864 A 0.143 0.143 0 0 1 104.613 1.867 A 0.166 0.166 0 0 1 104.627 1.903 Q 104.655 1.995 104.675 2.254 Z M 196.925 2.254 L 197.225 5.104 Q 197.225 5.179 197.088 5.192 A 0.451 0.451 0 0 1 197.068 5.193 Q 196.948 5.199 196.925 5.129 Q 196.375 3.054 195.1 2.017 A 4.453 4.453 0 0 0 193.304 1.15 Q 192.649 0.993 191.881 0.98 A 8.149 8.149 0 0 0 191.75 0.979 A 8.86 8.86 0 0 0 189.699 1.207 A 7.059 7.059 0 0 0 187.888 1.904 Q 186.225 2.829 185.313 4.542 A 7.687 7.687 0 0 0 184.508 7.032 A 10.046 10.046 0 0 0 184.4 8.529 Q 184.4 10.654 185.413 12.492 Q 186.425 14.329 188.138 15.417 Q 189.85 16.504 191.8 16.504 A 6.337 6.337 0 0 0 193.947 16.164 Q 195.771 15.51 196.67 13.598 A 7.602 7.602 0 0 0 197.1 12.429 Q 197.1 12.379 197.225 12.379 Q 197.4 12.379 197.4 12.454 L 197.2 15.104 A 3.35 3.35 0 0 1 197.19 15.209 Q 197.171 15.372 197.142 15.445 A 0.183 0.183 0 0 1 197.125 15.479 Q 197.075 15.554 196.925 15.654 A 12.676 12.676 0 0 1 195.819 16.166 Q 195.127 16.444 194.488 16.592 Q 193.532 16.812 192.269 16.847 A 17.669 17.669 0 0 1 191.775 16.854 A 11.151 11.151 0 0 1 189.171 16.561 A 9.173 9.173 0 0 1 187.138 15.817 Q 185.1 14.779 183.95 12.892 A 7.905 7.905 0 0 1 182.84 9.453 A 9.813 9.813 0 0 1 182.8 8.554 A 8.16 8.16 0 0 1 183.144 6.148 A 7.086 7.086 0 0 1 183.95 4.404 A 7.613 7.613 0 0 1 187.003 1.683 A 9.082 9.082 0 0 1 187.138 1.617 A 9.865 9.865 0 0 1 190.325 0.709 A 12.332 12.332 0 0 1 191.75 0.629 Q 192.892 0.629 193.747 0.743 A 7.956 7.956 0 0 1 194.45 0.867 Q 195.492 1.102 196.657 1.695 A 13.135 13.135 0 0 1 196.675 1.704 A 1.651 1.651 0 0 1 196.739 1.749 Q 196.831 1.817 196.861 1.864 A 0.143 0.143 0 0 1 196.863 1.867 A 0.166 0.166 0 0 1 196.877 1.903 Q 196.905 1.995 196.925 2.254 Z M 10.125 0.929 L 11.825 0.904 A 10.554 10.554 0 0 0 12.245 0.896 Q 12.831 0.873 13.15 0.779 A 0.959 0.959 0 0 0 13.407 0.664 A 0.717 0.717 0 0 0 13.7 0.279 A 0.13 0.13 0 0 1 13.729 0.222 Q 13.767 0.181 13.844 0.179 A 0.304 0.304 0 0 1 13.85 0.179 A 0.229 0.229 0 0 1 13.896 0.183 Q 13.975 0.199 13.975 0.279 Q 13.901 0.973 13.826 2.391 A 107.056 107.056 0 0 0 13.825 2.417 A 76.455 76.455 0 0 0 13.792 3.102 Q 13.756 3.942 13.751 4.558 A 23.697 23.697 0 0 0 13.75 4.754 A 0.033 0.033 0 0 1 13.732 4.783 Q 13.698 4.804 13.6 4.804 A 0.687 0.687 0 0 1 13.553 4.803 Q 13.45 4.796 13.45 4.754 A 10.311 10.311 0 0 0 13.424 4.002 Q 13.366 3.208 13.175 2.704 A 2.019 2.019 0 0 0 12.81 2.083 A 1.813 1.813 0 0 0 12.25 1.654 A 2.591 2.591 0 0 0 11.715 1.463 Q 11.178 1.329 10.425 1.329 Q 9.125 1.329 8.6 1.417 A 1.541 1.541 0 0 0 8.325 1.487 Q 8.175 1.542 8.067 1.625 A 0.695 0.695 0 0 0 7.887 1.829 Q 7.7 2.154 7.7 2.979 L 7.7 14.504 Q 7.7 15.146 7.82 15.496 A 1.08 1.08 0 0 0 7.875 15.629 A 0.78 0.78 0 0 0 8.171 15.945 Q 8.288 16.017 8.44 16.066 A 1.744 1.744 0 0 0 8.575 16.104 Q 8.981 16.201 9.747 16.223 A 16.796 16.796 0 0 0 10.225 16.229 A 0.033 0.033 0 0 1 10.254 16.247 Q 10.275 16.281 10.275 16.379 A 0.687 0.687 0 0 1 10.274 16.426 Q 10.266 16.529 10.225 16.529 A 46.207 46.207 0 0 1 9.834 16.528 Q 9.454 16.524 9.167 16.515 A 13.34 13.34 0 0 1 8.925 16.504 L 7 16.479 L 5.175 16.504 A 14.963 14.963 0 0 1 4.902 16.515 Q 4.595 16.525 4.19 16.528 A 52.445 52.445 0 0 1 3.8 16.529 A 0.033 0.033 0 0 1 3.771 16.511 Q 3.75 16.477 3.75 16.379 A 0.687 0.687 0 0 1 3.751 16.332 Q 3.759 16.229 3.8 16.229 A 16.45 16.45 0 0 0 4.325 16.221 Q 5.056 16.198 5.45 16.104 Q 5.975 15.979 6.163 15.617 A 1.311 1.311 0 0 0 6.261 15.352 Q 6.336 15.073 6.348 14.665 A 5.503 5.503 0 0 0 6.35 14.504 L 6.35 2.929 Q 6.35 2.299 6.233 1.968 A 0.852 0.852 0 0 0 6.15 1.792 A 0.753 0.753 0 0 0 5.849 1.527 Q 5.678 1.439 5.438 1.404 Q 4.925 1.329 3.575 1.329 Q 2.604 1.329 1.956 1.614 A 2.123 2.123 0 0 0 1.275 2.079 A 2.483 2.483 0 0 0 0.85 2.698 Q 0.537 3.323 0.368 4.304 A 10.902 10.902 0 0 0 0.3 4.754 A 0.033 0.033 0 0 1 0.282 4.783 Q 0.248 4.804 0.15 4.804 A 0.687 0.687 0 0 1 0.103 4.803 Q 0 4.796 0 4.754 A 14.874 14.874 0 0 0 0.052 4.366 Q 0.127 3.74 0.216 2.702 A 100.097 100.097 0 0 0 0.225 2.592 A 58.425 58.425 0 0 0 0.28 1.894 Q 0.35 0.917 0.35 0.354 A 0.147 0.147 0 0 1 0.359 0.3 Q 0.384 0.236 0.479 0.23 A 0.323 0.323 0 0 1 0.5 0.229 A 0.263 0.263 0 0 1 0.556 0.235 Q 0.636 0.252 0.648 0.327 A 0.175 0.175 0 0 1 0.65 0.354 A 0.405 0.405 0 0 0 0.877 0.715 Q 1.199 0.904 1.975 0.904 A 110.819 110.819 0 0 0 3.689 0.95 Q 5.203 0.979 7 0.979 Q 8.475 0.979 10.125 0.929 Z M 133.775 0.929 L 135.475 0.904 A 10.554 10.554 0 0 0 135.895 0.896 Q 136.481 0.873 136.8 0.779 A 0.959 0.959 0 0 0 137.057 0.664 A 0.717 0.717 0 0 0 137.35 0.279 A 0.13 0.13 0 0 1 137.379 0.222 Q 137.417 0.181 137.494 0.179 A 0.304 0.304 0 0 1 137.5 0.179 A 0.229 0.229 0 0 1 137.546 0.183 Q 137.625 0.199 137.625 0.279 Q 137.551 0.973 137.476 2.391 A 107.056 107.056 0 0 0 137.475 2.417 A 76.455 76.455 0 0 0 137.442 3.102 Q 137.406 3.942 137.401 4.558 A 23.697 23.697 0 0 0 137.4 4.754 A 0.033 0.033 0 0 1 137.382 4.783 Q 137.348 4.804 137.25 4.804 A 0.687 0.687 0 0 1 137.203 4.803 Q 137.1 4.796 137.1 4.754 A 10.311 10.311 0 0 0 137.074 4.002 Q 137.016 3.208 136.825 2.704 A 2.019 2.019 0 0 0 136.46 2.083 A 1.813 1.813 0 0 0 135.9 1.654 A 2.591 2.591 0 0 0 135.365 1.463 Q 134.828 1.329 134.075 1.329 Q 132.775 1.329 132.25 1.417 A 1.541 1.541 0 0 0 131.975 1.487 Q 131.825 1.542 131.717 1.625 A 0.695 0.695 0 0 0 131.537 1.829 Q 131.35 2.154 131.35 2.979 L 131.35 14.504 Q 131.35 15.146 131.47 15.496 A 1.08 1.08 0 0 0 131.525 15.629 A 0.78 0.78 0 0 0 131.821 15.945 Q 131.938 16.017 132.09 16.066 A 1.744 1.744 0 0 0 132.225 16.104 Q 132.631 16.201 133.397 16.223 A 16.796 16.796 0 0 0 133.875 16.229 A 0.033 0.033 0 0 1 133.904 16.247 Q 133.925 16.281 133.925 16.379 A 0.687 0.687 0 0 1 133.924 16.426 Q 133.916 16.529 133.875 16.529 A 46.207 46.207 0 0 1 133.484 16.528 Q 133.104 16.524 132.817 16.515 A 13.34 13.34 0 0 1 132.575 16.504 L 130.65 16.479 L 128.825 16.504 A 14.963 14.963 0 0 1 128.552 16.515 Q 128.245 16.525 127.84 16.528 A 52.445 52.445 0 0 1 127.45 16.529 A 0.033 0.033 0 0 1 127.421 16.511 Q 127.4 16.477 127.4 16.379 A 0.687 0.687 0 0 1 127.401 16.332 Q 127.409 16.229 127.45 16.229 A 16.45 16.45 0 0 0 127.975 16.221 Q 128.706 16.198 129.1 16.104 Q 129.625 15.979 129.813 15.617 A 1.311 1.311 0 0 0 129.911 15.352 Q 129.986 15.073 129.998 14.665 A 5.503 5.503 0 0 0 130 14.504 L 130 2.929 Q 130 2.299 129.883 1.968 A 0.852 0.852 0 0 0 129.8 1.792 A 0.753 0.753 0 0 0 129.499 1.527 Q 129.328 1.439 129.088 1.404 Q 128.575 1.329 127.225 1.329 Q 126.254 1.329 125.606 1.614 A 2.123 2.123 0 0 0 124.925 2.079 A 2.483 2.483 0 0 0 124.5 2.698 Q 124.187 3.323 124.018 4.304 A 10.902 10.902 0 0 0 123.95 4.754 A 0.033 0.033 0 0 1 123.932 4.783 Q 123.898 4.804 123.8 4.804 A 0.687 0.687 0 0 1 123.753 4.803 Q 123.65 4.796 123.65 4.754 A 14.874 14.874 0 0 0 123.702 4.366 Q 123.777 3.74 123.866 2.702 A 100.097 100.097 0 0 0 123.875 2.592 A 58.425 58.425 0 0 0 123.93 1.894 Q 124 0.917 124 0.354 A 0.147 0.147 0 0 1 124.009 0.3 Q 124.034 0.236 124.129 0.23 A 0.323 0.323 0 0 1 124.15 0.229 A 0.263 0.263 0 0 1 124.206 0.235 Q 124.286 0.252 124.298 0.327 A 0.175 0.175 0 0 1 124.3 0.354 A 0.405 0.405 0 0 0 124.527 0.715 Q 124.849 0.904 125.625 0.904 A 110.819 110.819 0 0 0 127.339 0.95 Q 128.853 0.979 130.65 0.979 Q 132.125 0.979 133.775 0.929 Z M 37.15 14.504 L 37.15 2.929 A 5.518 5.518 0 0 0 37.138 2.549 Q 37.113 2.188 37.036 1.954 A 1.137 1.137 0 0 0 36.988 1.829 Q 36.827 1.483 36.372 1.345 A 1.601 1.601 0 0 0 36.363 1.342 A 2.442 2.442 0 0 0 36.062 1.275 Q 35.732 1.222 35.251 1.208 A 11.997 11.997 0 0 0 34.925 1.204 A 0.033 0.033 0 0 1 34.896 1.186 Q 34.875 1.152 34.875 1.054 A 0.687 0.687 0 0 1 34.876 1.007 Q 34.884 0.904 34.925 0.904 L 44.825 0.904 Q 45.05 0.904 45.05 1.129 L 45.1 4.154 Q 45.1 4.229 44.963 4.229 A 0.376 0.376 0 0 1 44.916 4.227 Q 44.825 4.215 44.825 4.154 Q 44.825 3.02 44.291 2.301 A 2.372 2.372 0 0 0 44.15 2.129 A 2.23 2.23 0 0 0 42.578 1.386 A 3.06 3.06 0 0 0 42.375 1.379 L 40.65 1.379 A 11.766 11.766 0 0 0 40.206 1.387 Q 39.759 1.404 39.458 1.458 A 2.287 2.287 0 0 0 39.25 1.504 A 1.185 1.185 0 0 0 38.975 1.617 A 0.802 0.802 0 0 0 38.638 1.979 A 1.323 1.323 0 0 0 38.555 2.222 Q 38.475 2.552 38.475 3.079 L 38.475 14.404 Q 38.475 15.129 38.638 15.467 Q 38.8 15.804 39.238 15.929 Q 39.588 16.029 40.282 16.049 A 12.825 12.825 0 0 0 40.65 16.054 L 42.95 16.054 A 2.06 2.06 0 0 0 44.433 15.431 A 2.972 2.972 0 0 0 44.663 15.179 Q 45.331 14.359 45.548 13.054 A 6.878 6.878 0 0 0 45.575 12.879 Q 45.575 12.805 45.722 12.816 A 0.587 0.587 0 0 1 45.725 12.817 A 0.458 0.458 0 0 1 45.776 12.824 Q 45.875 12.843 45.875 12.904 Q 45.65 14.479 45.65 16.154 Q 45.65 16.352 45.565 16.439 A 0.218 0.218 0 0 1 45.563 16.442 A 0.242 0.242 0 0 1 45.482 16.493 Q 45.408 16.523 45.294 16.528 A 1.053 1.053 0 0 1 45.25 16.529 L 34.925 16.529 A 0.033 0.033 0 0 1 34.896 16.511 Q 34.875 16.477 34.875 16.379 A 0.687 0.687 0 0 1 34.876 16.332 Q 34.884 16.229 34.925 16.229 A 12.396 12.396 0 0 0 35.38 16.221 Q 36.016 16.198 36.363 16.104 A 1.19 1.19 0 0 0 36.639 15.993 A 0.803 0.803 0 0 0 36.988 15.617 A 1.43 1.43 0 0 0 37.071 15.36 Q 37.133 15.1 37.146 14.727 A 6.126 6.126 0 0 0 37.15 14.504 Z M 327.255 9.557 A 5.152 5.152 0 0 0 326.325 9.479 A 5.637 5.637 0 0 0 325.838 9.5 A 4.376 4.376 0 0 0 322.675 11.204 A 0.068 0.068 0 0 0 322.668 11.235 Q 322.668 11.265 322.692 11.302 A 0.297 0.297 0 0 0 322.713 11.329 A 0.316 0.316 0 0 0 322.72 11.338 Q 322.74 11.361 322.762 11.376 A 0.152 0.152 0 0 0 322.85 11.404 A 0.176 0.176 0 0 0 322.866 11.403 Q 322.904 11.4 322.925 11.379 A 9.484 9.484 0 0 1 323.415 10.964 Q 323.65 10.779 323.867 10.638 A 3.86 3.86 0 0 1 324.3 10.392 Q 324.9 10.104 325.6 10.104 Q 326.9 10.104 327.575 10.967 Q 327.997 11.506 328.155 12.245 A 4.582 4.582 0 0 1 328.25 13.204 Q 328.25 14.679 327.463 15.542 A 2.539 2.539 0 0 1 326.338 16.265 A 3.171 3.171 0 0 1 325.375 16.404 A 3.128 3.128 0 0 1 323.424 15.773 A 3.794 3.794 0 0 1 322.563 14.829 A 5.487 5.487 0 0 1 322.401 14.569 Q 321.897 13.702 321.683 12.613 A 8.989 8.989 0 0 1 321.525 10.879 Q 321.525 8.904 322.375 6.867 A 11.052 11.052 0 0 1 323.06 5.501 A 12.638 12.638 0 0 1 324.925 3.092 Q 326.625 1.354 329.05 0.279 A 0.097 0.097 0 0 0 329.088 0.234 Q 329.107 0.185 329.075 0.104 Q 329.03 -0.008 328.945 0.001 A 0.141 0.141 0 0 0 328.925 0.004 A 15.316 15.316 0 0 0 328.507 0.154 A 13.305 13.305 0 0 0 324.238 2.717 Q 322.25 4.504 321.2 6.754 A 12.345 12.345 0 0 0 321.058 7.071 A 10.629 10.629 0 0 0 320.15 11.329 A 10.22 10.22 0 0 0 320.181 12.133 Q 320.248 12.984 320.463 13.692 A 4.811 4.811 0 0 0 321.363 15.404 A 3.866 3.866 0 0 0 323.197 16.642 A 4.893 4.893 0 0 0 324.675 16.854 A 6.292 6.292 0 0 0 324.759 16.854 A 5.415 5.415 0 0 0 327.163 16.279 A 5.461 5.461 0 0 0 327.337 16.187 A 4.589 4.589 0 0 0 328.963 14.717 Q 329.625 13.729 329.625 12.554 A 4.031 4.031 0 0 0 329.617 12.294 A 3.09 3.09 0 0 0 328.825 10.367 Q 328.263 9.743 327.255 9.557 Z M 311.8 13.779 Q 310.575 13.779 309.775 13.279 A 3.375 3.375 0 0 1 309.036 12.664 A 2.884 2.884 0 0 1 308.6 12.017 Q 308.225 11.254 308.225 10.429 A 3.585 3.585 0 0 1 308.471 9.09 A 3.375 3.375 0 0 1 308.825 8.429 A 4.016 4.016 0 0 1 310.21 7.185 A 4.847 4.847 0 0 1 310.463 7.054 A 5.099 5.099 0 0 1 312.403 6.564 A 6.037 6.037 0 0 1 312.75 6.554 Q 314.25 6.554 315.363 7.292 A 4.728 4.728 0 0 1 316.884 8.954 A 5.789 5.789 0 0 1 317.088 9.354 Q 317.7 10.679 317.7 12.429 A 10.226 10.226 0 0 1 316.867 16.432 A 11.987 11.987 0 0 1 316.65 16.917 A 11.864 11.864 0 0 1 314.007 20.499 A 13.789 13.789 0 0 1 313.613 20.854 A 12.58 12.58 0 0 1 309.425 23.242 A 14.612 14.612 0 0 1 308.925 23.404 A 0.079 0.079 0 0 1 308.904 23.408 Q 308.849 23.411 308.802 23.33 A 0.426 0.426 0 0 1 308.788 23.304 Q 308.725 23.179 308.825 23.129 A 12.41 12.41 0 0 0 311.913 21.383 A 11.314 11.314 0 0 0 312.925 20.492 Q 314.625 18.804 315.475 16.817 A 10.785 10.785 0 0 0 316.162 14.608 A 8.896 8.896 0 0 0 316.325 12.929 A 9.315 9.315 0 0 0 315.919 10.238 A 10.345 10.345 0 0 0 315.913 10.217 Q 315.5 8.854 314.6 7.929 A 3.015 3.015 0 0 0 312.453 7.006 A 3.991 3.991 0 0 0 312.325 7.004 Q 311.075 7.004 310.338 7.792 Q 309.6 8.579 309.6 9.979 A 4.014 4.014 0 0 0 309.744 11.077 A 3.177 3.177 0 0 0 310.35 12.242 A 2.433 2.433 0 0 0 311.841 13.097 A 3.636 3.636 0 0 0 312.5 13.154 Q 313.194 13.154 313.716 12.945 A 2.436 2.436 0 0 0 313.725 12.942 Q 314.098 12.791 314.546 12.47 A 7.675 7.675 0 0 0 314.925 12.179 A 0.078 0.078 0 0 1 314.956 12.16 Q 314.969 12.156 314.984 12.155 A 0.176 0.176 0 0 1 315 12.154 A 0.166 0.166 0 0 1 315.075 12.173 Q 315.1 12.185 315.124 12.206 A 0.373 0.373 0 0 1 315.15 12.229 A 0.336 0.336 0 0 1 315.174 12.256 Q 315.206 12.296 315.206 12.328 A 0.059 0.059 0 0 1 315.2 12.354 A 4.203 4.203 0 0 1 312.381 13.751 A 5.841 5.841 0 0 1 311.8 13.779 Z M 169.075 16.054 L 172.275 16.054 A 2.787 2.787 0 0 0 173.653 15.728 Q 174.73 15.128 175.103 13.423 A 7.44 7.44 0 0 0 175.2 12.879 A 0.054 0.054 0 0 1 175.232 12.827 Q 175.266 12.811 175.335 12.816 A 0.494 0.494 0 0 1 175.338 12.817 A 0.387 0.387 0 0 1 175.384 12.824 Q 175.475 12.843 175.475 12.904 Q 175.324 14.231 175.274 15.242 A 18.707 18.707 0 0 0 175.25 16.154 Q 175.25 16.354 175.175 16.442 A 0.196 0.196 0 0 1 175.106 16.491 Q 175.023 16.529 174.875 16.529 L 163.375 16.529 A 0.033 0.033 0 0 1 163.346 16.511 Q 163.325 16.477 163.325 16.379 A 0.687 0.687 0 0 1 163.326 16.332 Q 163.334 16.229 163.375 16.229 A 12.396 12.396 0 0 0 163.83 16.221 Q 164.466 16.198 164.813 16.104 A 1.19 1.19 0 0 0 165.089 15.993 A 0.803 0.803 0 0 0 165.438 15.617 A 1.43 1.43 0 0 0 165.521 15.36 Q 165.583 15.1 165.596 14.727 A 6.126 6.126 0 0 0 165.6 14.504 L 165.6 2.929 A 5.518 5.518 0 0 0 165.588 2.549 Q 165.563 2.188 165.486 1.954 A 1.137 1.137 0 0 0 165.438 1.829 Q 165.277 1.483 164.822 1.345 A 1.601 1.601 0 0 0 164.813 1.342 A 2.442 2.442 0 0 0 164.512 1.275 Q 164.182 1.222 163.701 1.208 A 11.997 11.997 0 0 0 163.375 1.204 A 0.033 0.033 0 0 1 163.346 1.186 Q 163.325 1.152 163.325 1.054 A 0.687 0.687 0 0 1 163.326 1.007 Q 163.334 0.904 163.375 0.904 L 164.6 0.929 Q 165.65 0.979 166.25 0.979 Q 166.854 0.979 167.758 0.939 A 65.031 65.031 0 0 0 167.975 0.929 L 169.15 0.904 A 0.033 0.033 0 0 1 169.179 0.922 Q 169.2 0.956 169.2 1.054 A 0.687 0.687 0 0 1 169.199 1.101 Q 169.191 1.204 169.15 1.204 A 11.27 11.27 0 0 0 168.695 1.213 Q 168.235 1.231 167.927 1.29 A 2.221 2.221 0 0 0 167.713 1.342 A 1.234 1.234 0 0 0 167.43 1.463 A 0.831 0.831 0 0 0 167.088 1.842 A 1.43 1.43 0 0 0 167.004 2.099 Q 166.942 2.358 166.929 2.731 A 6.126 6.126 0 0 0 166.925 2.954 L 166.925 14.404 Q 166.925 15.129 167.088 15.467 Q 167.25 15.804 167.688 15.929 A 2.365 2.365 0 0 0 167.972 15.989 Q 168.284 16.038 168.744 16.05 A 12.401 12.401 0 0 0 169.075 16.054 Z M 205.35 16.054 L 208.55 16.054 A 2.787 2.787 0 0 0 209.928 15.728 Q 211.005 15.128 211.378 13.423 A 7.44 7.44 0 0 0 211.475 12.879 A 0.054 0.054 0 0 1 211.507 12.827 Q 211.541 12.811 211.61 12.816 A 0.494 0.494 0 0 1 211.613 12.817 A 0.387 0.387 0 0 1 211.659 12.824 Q 211.75 12.843 211.75 12.904 Q 211.599 14.231 211.549 15.242 A 18.707 18.707 0 0 0 211.525 16.154 Q 211.525 16.354 211.45 16.442 A 0.196 0.196 0 0 1 211.381 16.491 Q 211.298 16.529 211.15 16.529 L 199.65 16.529 A 0.033 0.033 0 0 1 199.621 16.511 Q 199.6 16.477 199.6 16.379 A 0.687 0.687 0 0 1 199.601 16.332 Q 199.609 16.229 199.65 16.229 A 12.396 12.396 0 0 0 200.105 16.221 Q 200.741 16.198 201.088 16.104 A 1.19 1.19 0 0 0 201.364 15.993 A 0.803 0.803 0 0 0 201.713 15.617 A 1.43 1.43 0 0 0 201.796 15.36 Q 201.858 15.1 201.871 14.727 A 6.126 6.126 0 0 0 201.875 14.504 L 201.875 2.929 A 5.518 5.518 0 0 0 201.863 2.549 Q 201.838 2.188 201.761 1.954 A 1.137 1.137 0 0 0 201.713 1.829 Q 201.552 1.483 201.097 1.345 A 1.601 1.601 0 0 0 201.088 1.342 A 2.442 2.442 0 0 0 200.787 1.275 Q 200.457 1.222 199.976 1.208 A 11.997 11.997 0 0 0 199.65 1.204 A 0.033 0.033 0 0 1 199.621 1.186 Q 199.6 1.152 199.6 1.054 A 0.687 0.687 0 0 1 199.601 1.007 Q 199.609 0.904 199.65 0.904 L 200.875 0.929 Q 201.925 0.979 202.525 0.979 Q 203.129 0.979 204.033 0.939 A 65.031 65.031 0 0 0 204.25 0.929 L 205.425 0.904 A 0.033 0.033 0 0 1 205.454 0.922 Q 205.475 0.956 205.475 1.054 A 0.687 0.687 0 0 1 205.474 1.101 Q 205.466 1.204 205.425 1.204 A 11.27 11.27 0 0 0 204.97 1.213 Q 204.51 1.231 204.202 1.29 A 2.221 2.221 0 0 0 203.988 1.342 A 1.234 1.234 0 0 0 203.705 1.463 A 0.831 0.831 0 0 0 203.363 1.842 A 1.43 1.43 0 0 0 203.279 2.099 Q 203.217 2.358 203.204 2.731 A 6.126 6.126 0 0 0 203.2 2.954 L 203.2 14.404 Q 203.2 15.129 203.363 15.467 Q 203.525 15.804 203.963 15.929 A 2.365 2.365 0 0 0 204.247 15.989 Q 204.559 16.038 205.019 16.05 A 12.401 12.401 0 0 0 205.35 16.054 Z M 233.425 16.479 L 231.775 16.504 A 12.05 12.05 0 0 1 231.528 16.515 Q 231.251 16.525 230.881 16.528 A 43.694 43.694 0 0 1 230.525 16.529 A 0.033 0.033 0 0 1 230.496 16.511 Q 230.475 16.477 230.475 16.379 A 0.687 0.687 0 0 1 230.476 16.332 Q 230.484 16.229 230.525 16.229 A 12.977 12.977 0 0 0 230.991 16.221 Q 231.641 16.198 231.988 16.104 A 1.208 1.208 0 0 0 232.277 15.987 A 0.844 0.844 0 0 0 232.625 15.617 A 1.37 1.37 0 0 0 232.717 15.352 Q 232.8 15.02 232.8 14.504 L 232.8 2.929 A 5.518 5.518 0 0 0 232.788 2.549 Q 232.763 2.188 232.686 1.954 A 1.137 1.137 0 0 0 232.638 1.829 Q 232.477 1.483 232.022 1.345 A 1.601 1.601 0 0 0 232.013 1.342 A 2.442 2.442 0 0 0 231.712 1.275 Q 231.382 1.222 230.901 1.208 A 11.997 11.997 0 0 0 230.575 1.204 A 0.06 0.06 0 0 1 230.519 1.167 Q 230.504 1.138 230.501 1.086 A 0.505 0.505 0 0 1 230.5 1.054 A 0.45 0.45 0 0 1 230.503 1.004 Q 230.514 0.904 230.575 0.904 L 231.775 0.929 Q 232.775 0.979 233.425 0.979 A 14.574 14.574 0 0 0 233.968 0.969 A 12.241 12.241 0 0 0 234.275 0.954 Q 234.675 0.929 234.975 0.904 A 20.364 20.364 0 0 1 235.543 0.858 Q 235.823 0.84 236.068 0.833 A 10.085 10.085 0 0 1 236.35 0.829 A 7.284 7.284 0 0 1 237.472 0.91 Q 238.052 1 238.513 1.193 A 2.932 2.932 0 0 1 239.413 1.767 Q 240.4 2.704 240.4 4.154 Q 240.4 5.529 239.425 6.529 A 4.912 4.912 0 0 1 237.801 7.621 A 6.431 6.431 0 0 1 236.875 7.929 L 237.15 7.704 Q 238.55 7.704 239.625 8.254 A 4.375 4.375 0 0 1 240.807 9.123 A 4.009 4.009 0 0 1 241.3 9.754 A 3.908 3.908 0 0 1 241.898 11.755 A 4.709 4.709 0 0 1 241.9 11.904 Q 241.9 13.254 241.275 14.329 Q 240.65 15.404 239.55 16.017 A 4.898 4.898 0 0 1 237.135 16.629 A 5.818 5.818 0 0 1 237.125 16.629 A 21.49 21.49 0 0 1 236.023 16.6 A 25.498 25.498 0 0 1 235.325 16.554 Q 235.084 16.537 234.785 16.52 A 60.716 60.716 0 0 0 234.5 16.504 A 17.124 17.124 0 0 0 234.027 16.486 Q 233.779 16.48 233.504 16.479 A 28.269 28.269 0 0 0 233.425 16.479 Z M 76.84 16.475 A 8.474 8.474 0 0 0 79.325 16.829 Q 81.675 16.829 83.688 15.729 Q 85.7 14.629 86.9 12.729 Q 88.1 10.829 88.1 8.554 Q 88.1 6.504 87.138 4.679 Q 86.175 2.854 84.375 1.742 A 7.189 7.189 0 0 0 82.529 0.934 A 8.583 8.583 0 0 0 80.2 0.629 A 9.747 9.747 0 0 0 80.067 0.63 A 9.992 9.992 0 0 0 76.038 1.554 Q 74 2.479 72.7 4.317 A 6.825 6.825 0 0 0 71.685 6.479 A 8.515 8.515 0 0 0 71.4 8.729 Q 71.4 10.929 72.388 12.792 Q 73.375 14.654 75.188 15.742 A 7.392 7.392 0 0 0 76.84 16.475 Z M 160.075 16.504 L 158.325 16.479 L 156.65 16.504 A 12.207 12.207 0 0 1 156.405 16.515 Q 156.131 16.525 155.77 16.528 A 41.284 41.284 0 0 1 155.425 16.529 A 0.06 0.06 0 0 1 155.369 16.492 Q 155.354 16.463 155.351 16.411 A 0.505 0.505 0 0 1 155.35 16.379 A 0.45 0.45 0 0 1 155.353 16.329 Q 155.364 16.229 155.425 16.229 A 12.396 12.396 0 0 0 155.88 16.221 Q 156.516 16.198 156.863 16.104 A 1.208 1.208 0 0 0 157.152 15.987 A 0.844 0.844 0 0 0 157.5 15.617 A 1.37 1.37 0 0 0 157.592 15.352 Q 157.675 15.02 157.675 14.504 L 157.675 2.929 A 5.126 5.126 0 0 0 157.662 2.549 Q 157.627 2.083 157.5 1.829 A 0.874 0.874 0 0 0 157.135 1.455 A 1.322 1.322 0 0 0 156.863 1.342 A 2.442 2.442 0 0 0 156.562 1.275 Q 156.232 1.222 155.751 1.208 A 11.997 11.997 0 0 0 155.425 1.204 A 0.06 0.06 0 0 1 155.369 1.167 Q 155.354 1.138 155.351 1.086 A 0.505 0.505 0 0 1 155.35 1.054 A 0.45 0.45 0 0 1 155.353 1.004 Q 155.364 0.904 155.425 0.904 L 156.65 0.929 Q 157.7 0.979 158.325 0.979 Q 159.025 0.979 160.075 0.929 L 161.25 0.904 A 0.033 0.033 0 0 1 161.279 0.922 Q 161.3 0.956 161.3 1.054 A 0.687 0.687 0 0 1 161.299 1.101 Q 161.291 1.204 161.25 1.204 Q 160.463 1.204 160.01 1.302 A 2.028 2.028 0 0 0 159.813 1.354 A 1.286 1.286 0 0 0 159.53 1.482 A 0.861 0.861 0 0 0 159.188 1.867 A 1.43 1.43 0 0 0 159.104 2.124 Q 159.042 2.383 159.029 2.756 A 6.126 6.126 0 0 0 159.025 2.979 L 159.025 14.504 A 5.893 5.893 0 0 0 159.036 14.886 Q 159.06 15.253 159.134 15.49 A 1.138 1.138 0 0 0 159.188 15.629 A 0.812 0.812 0 0 0 159.567 16.015 A 1.228 1.228 0 0 0 159.8 16.104 Q 160.16 16.204 160.872 16.224 A 13.496 13.496 0 0 0 161.25 16.229 A 0.033 0.033 0 0 1 161.279 16.247 Q 161.3 16.281 161.3 16.379 A 0.687 0.687 0 0 1 161.299 16.426 Q 161.291 16.529 161.25 16.529 A 38.049 38.049 0 0 1 160.895 16.528 Q 160.511 16.524 160.234 16.512 A 9.982 9.982 0 0 1 160.075 16.504 Z M 27.1 0.904 L 28.275 0.929 Q 29.325 0.979 30 0.979 Q 30.479 0.979 31.206 0.95 A 64.177 64.177 0 0 0 31.675 0.929 L 32.875 0.904 A 0.06 0.06 0 0 1 32.931 0.941 Q 32.946 0.97 32.949 1.022 A 0.505 0.505 0 0 1 32.95 1.054 A 0.45 0.45 0 0 1 32.947 1.104 Q 32.936 1.204 32.875 1.204 A 11.27 11.27 0 0 0 32.42 1.213 Q 31.96 1.231 31.652 1.29 A 2.221 2.221 0 0 0 31.438 1.342 A 1.31 1.31 0 0 0 31.154 1.461 A 0.871 0.871 0 0 0 30.8 1.829 A 1.27 1.27 0 0 0 30.71 2.08 Q 30.644 2.335 30.629 2.707 A 5.666 5.666 0 0 0 30.625 2.929 L 30.625 14.504 A 5.131 5.131 0 0 0 30.639 14.895 Q 30.668 15.27 30.756 15.512 A 1.142 1.142 0 0 0 30.8 15.617 A 0.858 0.858 0 0 0 31.212 16.021 A 1.271 1.271 0 0 0 31.438 16.104 Q 31.9 16.229 32.875 16.229 A 0.06 0.06 0 0 1 32.931 16.266 Q 32.946 16.295 32.949 16.347 A 0.505 0.505 0 0 1 32.95 16.379 A 0.45 0.45 0 0 1 32.947 16.429 Q 32.936 16.529 32.875 16.529 A 40.331 40.331 0 0 1 32.509 16.528 Q 31.994 16.523 31.675 16.504 L 30 16.479 L 28.275 16.504 A 10.784 10.784 0 0 1 28.042 16.515 Q 27.781 16.525 27.434 16.528 A 38.463 38.463 0 0 1 27.1 16.529 A 0.06 0.06 0 0 1 27.044 16.492 Q 27.029 16.463 27.026 16.411 A 0.505 0.505 0 0 1 27.025 16.379 A 0.45 0.45 0 0 1 27.028 16.329 Q 27.039 16.229 27.1 16.229 A 12.911 12.911 0 0 0 27.566 16.221 Q 28.213 16.198 28.55 16.104 A 1.185 1.185 0 0 0 28.825 15.992 A 0.802 0.802 0 0 0 29.163 15.629 A 1.287 1.287 0 0 0 29.241 15.399 Q 29.325 15.061 29.325 14.504 L 29.325 2.979 A 5.525 5.525 0 0 0 29.312 2.588 Q 29.286 2.214 29.203 1.972 A 1.191 1.191 0 0 0 29.163 1.867 A 0.868 0.868 0 0 0 28.797 1.469 A 1.31 1.31 0 0 0 28.538 1.354 A 2.269 2.269 0 0 0 28.237 1.282 Q 27.905 1.223 27.42 1.209 A 11.03 11.03 0 0 0 27.1 1.204 A 0.06 0.06 0 0 1 27.044 1.167 Q 27.029 1.138 27.026 1.086 A 0.505 0.505 0 0 1 27.025 1.054 A 0.45 0.45 0 0 1 27.028 1.004 Q 27.039 0.904 27.1 0.904 Z M 15.8 0.904 L 17.025 0.929 Q 18.075 0.979 18.675 0.979 Q 19.279 0.979 20.183 0.939 A 65.031 65.031 0 0 0 20.4 0.929 L 21.575 0.904 A 0.033 0.033 0 0 1 21.604 0.922 Q 21.625 0.956 21.625 1.054 A 0.687 0.687 0 0 1 21.624 1.101 Q 21.616 1.204 21.575 1.204 Q 20.788 1.204 20.335 1.302 A 2.028 2.028 0 0 0 20.138 1.354 A 1.286 1.286 0 0 0 19.855 1.482 A 0.861 0.861 0 0 0 19.513 1.867 A 1.43 1.43 0 0 0 19.429 2.124 Q 19.367 2.383 19.354 2.756 A 6.126 6.126 0 0 0 19.35 2.979 L 19.35 14.504 A 5.893 5.893 0 0 0 19.361 14.886 Q 19.385 15.253 19.459 15.49 A 1.138 1.138 0 0 0 19.513 15.629 A 0.812 0.812 0 0 0 19.892 16.015 A 1.228 1.228 0 0 0 20.125 16.104 Q 20.485 16.204 21.197 16.224 A 13.496 13.496 0 0 0 21.575 16.229 A 0.033 0.033 0 0 1 21.604 16.247 Q 21.625 16.281 21.625 16.379 A 0.687 0.687 0 0 1 21.624 16.426 Q 21.616 16.529 21.575 16.529 A 38.559 38.559 0 0 1 21.219 16.528 Q 20.871 16.524 20.602 16.515 A 12.204 12.204 0 0 1 20.375 16.504 L 18.675 16.479 L 17.025 16.504 A 12.05 12.05 0 0 1 16.778 16.515 Q 16.501 16.525 16.131 16.528 A 43.694 43.694 0 0 1 15.775 16.529 A 0.033 0.033 0 0 1 15.746 16.511 Q 15.725 16.477 15.725 16.379 A 0.687 0.687 0 0 1 15.726 16.332 Q 15.734 16.229 15.775 16.229 A 12.396 12.396 0 0 0 16.23 16.221 Q 16.866 16.198 17.213 16.104 A 1.208 1.208 0 0 0 17.502 15.987 A 0.844 0.844 0 0 0 17.85 15.617 A 1.37 1.37 0 0 0 17.942 15.352 Q 18.025 15.02 18.025 14.504 L 18.025 2.929 A 5.518 5.518 0 0 0 18.013 2.549 Q 17.988 2.188 17.911 1.954 A 1.137 1.137 0 0 0 17.863 1.829 Q 17.702 1.483 17.247 1.345 A 1.601 1.601 0 0 0 17.238 1.342 A 2.442 2.442 0 0 0 16.937 1.275 Q 16.607 1.222 16.126 1.208 A 11.997 11.997 0 0 0 15.8 1.204 A 0.033 0.033 0 0 1 15.771 1.186 Q 15.75 1.152 15.75 1.054 A 0.687 0.687 0 0 1 15.751 1.007 Q 15.759 0.904 15.8 0.904 Z M 107.425 0.904 L 108.65 0.929 Q 109.7 0.979 110.3 0.979 Q 110.904 0.979 111.808 0.939 A 65.031 65.031 0 0 0 112.025 0.929 L 113.2 0.904 A 0.033 0.033 0 0 1 113.229 0.922 Q 113.25 0.956 113.25 1.054 A 0.687 0.687 0 0 1 113.249 1.101 Q 113.241 1.204 113.2 1.204 Q 112.413 1.204 111.96 1.302 A 2.028 2.028 0 0 0 111.763 1.354 A 1.286 1.286 0 0 0 111.48 1.482 A 0.861 0.861 0 0 0 111.138 1.867 A 1.43 1.43 0 0 0 111.054 2.124 Q 110.992 2.383 110.979 2.756 A 6.126 6.126 0 0 0 110.975 2.979 L 110.975 14.504 A 5.893 5.893 0 0 0 110.986 14.886 Q 111.01 15.253 111.084 15.49 A 1.138 1.138 0 0 0 111.138 15.629 A 0.812 0.812 0 0 0 111.517 16.015 A 1.228 1.228 0 0 0 111.75 16.104 Q 112.11 16.204 112.822 16.224 A 13.496 13.496 0 0 0 113.2 16.229 A 0.033 0.033 0 0 1 113.229 16.247 Q 113.25 16.281 113.25 16.379 A 0.687 0.687 0 0 1 113.249 16.426 Q 113.241 16.529 113.2 16.529 A 38.559 38.559 0 0 1 112.844 16.528 Q 112.496 16.524 112.227 16.515 A 12.204 12.204 0 0 1 112 16.504 L 110.3 16.479 L 108.65 16.504 A 12.05 12.05 0 0 1 108.403 16.515 Q 108.126 16.525 107.756 16.528 A 43.694 43.694 0 0 1 107.4 16.529 A 0.033 0.033 0 0 1 107.371 16.511 Q 107.35 16.477 107.35 16.379 A 0.687 0.687 0 0 1 107.351 16.332 Q 107.359 16.229 107.4 16.229 A 12.396 12.396 0 0 0 107.855 16.221 Q 108.491 16.198 108.838 16.104 A 1.208 1.208 0 0 0 109.127 15.987 A 0.844 0.844 0 0 0 109.475 15.617 A 1.37 1.37 0 0 0 109.567 15.352 Q 109.65 15.02 109.65 14.504 L 109.65 2.929 A 5.518 5.518 0 0 0 109.638 2.549 Q 109.613 2.188 109.536 1.954 A 1.137 1.137 0 0 0 109.488 1.829 Q 109.327 1.483 108.872 1.345 A 1.601 1.601 0 0 0 108.863 1.342 A 2.442 2.442 0 0 0 108.562 1.275 Q 108.232 1.222 107.751 1.208 A 11.997 11.997 0 0 0 107.425 1.204 A 0.033 0.033 0 0 1 107.396 1.186 Q 107.375 1.152 107.375 1.054 A 0.687 0.687 0 0 1 107.376 1.007 Q 107.384 0.904 107.425 0.904 Z M 260.4 15.729 L 260.35 13.929 Q 260.35 13.854 260.488 13.842 A 0.451 0.451 0 0 1 260.507 13.84 Q 260.627 13.835 260.65 13.904 Q 260.996 14.815 261.481 15.373 A 2.893 2.893 0 0 0 261.863 15.742 Q 262.6 16.329 263.625 16.329 A 3.091 3.091 0 0 0 264.117 16.293 Q 264.378 16.25 264.587 16.16 A 1.385 1.385 0 0 0 264.925 15.954 A 1.208 1.208 0 0 0 265.331 15.276 A 1.878 1.878 0 0 0 265.375 14.854 A 2.781 2.781 0 0 0 265.324 14.309 Q 265.256 13.968 265.097 13.697 A 1.723 1.723 0 0 0 265.063 13.642 Q 264.75 13.154 264.288 12.854 Q 263.835 12.561 263.06 12.195 A 20.479 20.479 0 0 0 263.025 12.179 A 20.482 20.482 0 0 1 262.542 11.938 Q 262.048 11.682 261.713 11.467 A 2.687 2.687 0 0 1 260.974 10.757 A 3.141 3.141 0 0 1 260.888 10.629 A 2.055 2.055 0 0 1 260.61 9.939 Q 260.55 9.656 260.55 9.329 Q 260.55 8.004 261.55 7.279 Q 262.55 6.554 263.9 6.554 Q 264.825 6.554 265.675 6.929 A 1.602 1.602 0 0 1 265.735 6.961 Q 265.833 7.015 265.863 7.054 A 0.161 0.161 0 0 1 265.886 7.101 Q 265.893 7.123 265.897 7.15 A 0.427 0.427 0 0 1 265.9 7.204 A 15.338 15.338 0 0 1 265.898 7.429 Q 265.894 7.748 265.875 7.954 L 265.85 8.929 A 0.033 0.033 0 0 1 265.832 8.958 Q 265.798 8.979 265.7 8.979 A 0.687 0.687 0 0 1 265.653 8.978 Q 265.55 8.971 265.55 8.929 A 1.417 1.417 0 0 0 265.114 7.905 A 2.32 2.32 0 0 0 264.725 7.592 A 3.275 3.275 0 0 0 263.613 7.121 A 3.063 3.063 0 0 0 262.975 7.054 A 2.034 2.034 0 0 0 262.545 7.097 Q 262.256 7.16 262.039 7.313 A 1.211 1.211 0 0 0 261.913 7.417 A 1.157 1.157 0 0 0 261.594 7.949 Q 261.539 8.136 261.528 8.362 A 2.378 2.378 0 0 0 261.525 8.479 Q 261.525 9.404 262.1 9.917 Q 262.675 10.429 263.85 11.004 A 22.432 22.432 0 0 1 264.347 11.26 Q 264.856 11.531 265.2 11.754 Q 265.7 12.079 266.05 12.592 A 1.988 1.988 0 0 1 266.368 13.407 A 2.645 2.645 0 0 1 266.4 13.829 Q 266.4 15.079 265.463 15.942 A 3.129 3.129 0 0 1 264.107 16.662 Q 263.628 16.786 263.063 16.802 A 5.929 5.929 0 0 1 262.9 16.804 Q 261.575 16.804 260.55 16.029 A 0.323 0.323 0 0 1 260.404 15.795 A 0.471 0.471 0 0 1 260.4 15.729 Z M 257.625 10.129 L 256.45 10.129 Q 256.475 9.954 256.475 9.654 Q 256.475 8.839 256.225 8.289 A 1.866 1.866 0 0 0 255.888 7.779 A 1.946 1.946 0 0 0 254.746 7.188 A 2.786 2.786 0 0 0 254.3 7.154 A 2.979 2.979 0 0 0 253.32 7.308 A 2.467 2.467 0 0 0 252.125 8.204 A 3.591 3.591 0 0 0 251.585 9.314 Q 251.438 9.803 251.383 10.39 A 7.915 7.915 0 0 0 251.35 11.129 A 7.537 7.537 0 0 0 251.494 12.644 Q 251.689 13.594 252.148 14.334 A 4.478 4.478 0 0 0 252.375 14.667 Q 253.4 16.029 255.25 16.029 A 4.736 4.736 0 0 0 255.843 15.994 Q 256.248 15.943 256.575 15.817 A 5.173 5.173 0 0 0 257.075 15.59 Q 257.326 15.461 257.594 15.294 A 9.276 9.276 0 0 0 257.775 15.179 L 257.8 15.179 A 0.134 0.134 0 0 1 257.877 15.205 Q 257.909 15.226 257.938 15.267 Q 258 15.354 257.95 15.429 Q 256.3 16.829 254.375 16.829 Q 252.95 16.829 251.95 16.154 Q 250.95 15.479 250.438 14.392 A 5.448 5.448 0 0 1 249.926 12.128 A 6.29 6.29 0 0 1 249.925 12.029 Q 249.925 10.554 250.625 9.317 Q 251.325 8.079 252.513 7.367 Q 253.7 6.654 255.1 6.654 A 4.102 4.102 0 0 1 255.908 6.729 Q 256.723 6.892 257.213 7.417 Q 257.899 8.151 257.924 9.408 A 4.814 4.814 0 0 1 257.925 9.504 A 3.092 3.092 0 0 1 257.921 9.666 Q 257.913 9.812 257.891 9.907 A 0.478 0.478 0 0 1 257.863 9.992 A 0.219 0.219 0 0 1 257.708 10.12 A 0.35 0.35 0 0 1 257.625 10.129 Z M 80.225 16.329 A 6.561 6.561 0 0 0 82.356 15.991 A 5.979 5.979 0 0 0 83.425 15.504 A 5.647 5.647 0 0 0 85.431 13.514 A 6.962 6.962 0 0 0 85.675 13.079 A 7.184 7.184 0 0 0 86.342 11.081 Q 86.5 10.228 86.5 9.254 A 10.336 10.336 0 0 0 86.244 6.91 A 8.405 8.405 0 0 0 85.588 5.067 Q 84.675 3.229 83.013 2.204 A 6.888 6.888 0 0 0 80.152 1.235 A 8.703 8.703 0 0 0 79.15 1.179 A 7.5 7.5 0 0 0 77.249 1.407 A 5.236 5.236 0 0 0 74.625 2.979 A 6.044 6.044 0 0 0 73.268 5.575 Q 73.034 6.489 73.004 7.568 A 11.457 11.457 0 0 0 73 7.879 A 10.31 10.31 0 0 0 73.412 10.828 A 9.272 9.272 0 0 0 73.913 12.142 Q 74.825 14.079 76.475 15.204 A 6.497 6.497 0 0 0 80.209 16.329 A 7.815 7.815 0 0 0 80.225 16.329 Z M 289.275 6.904 L 290.925 6.929 L 292.55 6.904 A 10.784 10.784 0 0 1 292.783 6.893 Q 293.044 6.884 293.391 6.881 A 38.463 38.463 0 0 1 293.725 6.879 A 0.06 0.06 0 0 1 293.781 6.916 Q 293.796 6.945 293.799 6.997 A 0.505 0.505 0 0 1 293.8 7.029 A 0.45 0.45 0 0 1 293.797 7.079 Q 293.786 7.179 293.725 7.179 A 10.754 10.754 0 0 0 293.28 7.188 Q 292.811 7.207 292.498 7.271 A 2.179 2.179 0 0 0 292.313 7.317 A 1.31 1.31 0 0 0 292.029 7.436 A 0.871 0.871 0 0 0 291.675 7.804 A 1.27 1.27 0 0 0 291.585 8.055 Q 291.519 8.31 291.504 8.682 A 5.666 5.666 0 0 0 291.5 8.904 L 291.5 14.504 A 5.893 5.893 0 0 0 291.511 14.886 Q 291.535 15.253 291.609 15.49 A 1.138 1.138 0 0 0 291.663 15.629 A 0.812 0.812 0 0 0 292.042 16.015 A 1.228 1.228 0 0 0 292.275 16.104 Q 292.635 16.204 293.347 16.224 A 13.496 13.496 0 0 0 293.725 16.229 A 0.06 0.06 0 0 1 293.781 16.266 Q 293.796 16.295 293.799 16.347 A 0.505 0.505 0 0 1 293.8 16.379 A 0.45 0.45 0 0 1 293.797 16.429 Q 293.786 16.529 293.725 16.529 A 35.834 35.834 0 0 1 293.381 16.528 Q 292.894 16.523 292.575 16.504 L 290.925 16.479 L 289.3 16.504 A 10.784 10.784 0 0 1 289.067 16.515 Q 288.806 16.525 288.459 16.528 A 38.463 38.463 0 0 1 288.125 16.529 A 0.06 0.06 0 0 1 288.069 16.492 Q 288.054 16.463 288.051 16.411 A 0.505 0.505 0 0 1 288.05 16.379 A 0.45 0.45 0 0 1 288.053 16.329 Q 288.064 16.229 288.125 16.229 A 10.754 10.754 0 0 0 288.57 16.221 Q 289.039 16.201 289.352 16.137 A 2.179 2.179 0 0 0 289.538 16.092 A 1.31 1.31 0 0 0 289.821 15.972 A 0.871 0.871 0 0 0 290.175 15.604 A 1.27 1.27 0 0 0 290.265 15.354 Q 290.331 15.099 290.346 14.727 A 5.666 5.666 0 0 0 290.35 14.504 L 290.35 8.904 A 5.893 5.893 0 0 0 290.339 8.522 Q 290.315 8.155 290.241 7.919 A 1.138 1.138 0 0 0 290.187 7.779 A 0.812 0.812 0 0 0 289.808 7.394 A 1.228 1.228 0 0 0 289.575 7.304 Q 289.215 7.204 288.503 7.184 A 13.496 13.496 0 0 0 288.125 7.179 A 0.06 0.06 0 0 1 288.069 7.142 Q 288.054 7.113 288.051 7.061 A 0.505 0.505 0 0 1 288.05 7.029 A 0.45 0.45 0 0 1 288.053 6.979 Q 288.064 6.879 288.125 6.879 A 35.834 35.834 0 0 1 288.469 6.881 Q 288.956 6.885 289.275 6.904 Z M 269.975 14.829 L 269.975 8.879 Q 269.975 8.215 269.89 7.951 A 0.741 0.741 0 0 0 269.888 7.942 A 0.588 0.588 0 0 0 269.787 7.754 A 0.52 0.52 0 0 0 269.55 7.592 Q 269.304 7.506 268.696 7.504 A 8.71 8.71 0 0 0 268.675 7.504 A 0.06 0.06 0 0 1 268.619 7.467 Q 268.604 7.438 268.601 7.386 A 0.505 0.505 0 0 1 268.6 7.354 A 0.45 0.45 0 0 1 268.603 7.304 Q 268.614 7.204 268.675 7.204 A 2.8 2.8 0 0 0 269.349 7.127 A 1.991 1.991 0 0 0 270.213 6.679 A 1.69 1.69 0 0 0 270.798 5.453 A 2.111 2.111 0 0 0 270.8 5.354 A 0.053 0.053 0 0 1 270.829 5.308 Q 270.871 5.282 270.974 5.28 A 0.961 0.961 0 0 1 271 5.279 Q 271.175 5.279 271.175 5.354 L 271.175 13.979 Q 271.175 15.617 272.437 15.962 A 2.898 2.898 0 0 0 273.2 16.054 Q 274.35 16.054 275.225 15.379 L 275.275 15.354 Q 275.349 15.354 275.398 15.463 A 0.432 0.432 0 0 1 275.4 15.467 A 0.285 0.285 0 0 1 275.411 15.496 Q 275.44 15.586 275.375 15.629 A 11.94 11.94 0 0 1 274.766 16.032 Q 274.209 16.374 273.75 16.554 Q 273.05 16.829 272.3 16.829 A 3.721 3.721 0 0 1 271.584 16.764 Q 271.031 16.656 270.625 16.367 Q 270.04 15.95 269.981 15.037 A 3.267 3.267 0 0 1 269.975 14.829 Z M 115.875 0.904 L 116.925 0.929 Q 117.875 0.979 118.7 0.979 Q 119.475 0.979 120.325 0.929 L 121.2 0.904 A 0.06 0.06 0 0 1 121.256 0.941 Q 121.271 0.97 121.274 1.022 A 0.505 0.505 0 0 1 121.275 1.054 A 0.45 0.45 0 0 1 121.272 1.104 Q 121.261 1.204 121.2 1.204 A 5.955 5.955 0 0 0 119.711 1.4 A 7.235 7.235 0 0 0 119.088 1.592 A 5.084 5.084 0 0 0 117.719 2.343 A 6.532 6.532 0 0 0 117.05 2.929 L 110.65 9.154 L 110.05 9.179 L 116.475 2.779 A 9.917 9.917 0 0 0 116.764 2.479 Q 117.325 1.868 117.325 1.604 A 0.258 0.258 0 0 0 117.209 1.388 Q 117.163 1.354 117.099 1.328 A 0.885 0.885 0 0 0 116.988 1.292 A 1.92 1.92 0 0 0 116.777 1.251 Q 116.444 1.204 115.875 1.204 A 0.033 0.033 0 0 1 115.846 1.186 Q 115.825 1.152 115.825 1.054 A 0.687 0.687 0 0 1 115.826 1.007 Q 115.834 0.904 115.875 0.904 Z M 115.825 12.904 L 111.725 7.804 L 112.775 7.054 L 116.375 11.579 Q 118.275 13.954 119.275 14.929 Q 120.249 15.878 120.772 16.058 A 0.998 0.998 0 0 0 120.8 16.067 A 2.769 2.769 0 0 0 121.158 16.149 Q 121.53 16.211 122.059 16.225 A 12.036 12.036 0 0 0 122.375 16.229 A 0.06 0.06 0 0 1 122.431 16.266 Q 122.446 16.295 122.449 16.347 A 0.505 0.505 0 0 1 122.45 16.379 A 0.45 0.45 0 0 1 122.447 16.429 Q 122.436 16.529 122.375 16.529 L 119.575 16.529 A 12.102 12.102 0 0 1 119.271 16.526 Q 118.667 16.51 118.525 16.429 Q 118.376 16.344 117.816 15.565 A 31.615 31.615 0 0 1 117.613 15.279 A 41.161 41.161 0 0 0 116.907 14.308 Q 116.416 13.649 115.825 12.904 Z M 233.425 8.354 L 234.1 8.079 L 234.1 14.504 A 3.455 3.455 0 0 0 234.12 14.886 Q 234.141 15.075 234.185 15.231 A 1.312 1.312 0 0 0 234.313 15.542 Q 234.486 15.838 234.903 16.001 A 2.146 2.146 0 0 0 235.1 16.067 A 3.348 3.348 0 0 0 235.499 16.151 Q 236.01 16.229 236.775 16.229 A 5.654 5.654 0 0 0 237.815 16.14 Q 238.393 16.031 238.843 15.792 A 2.694 2.694 0 0 0 239.537 15.267 A 3.132 3.132 0 0 0 240.263 13.971 Q 240.45 13.333 240.45 12.529 A 5.056 5.056 0 0 0 240.26 11.109 A 3.913 3.913 0 0 0 239.288 9.442 A 3.937 3.937 0 0 0 237.197 8.335 A 5.657 5.657 0 0 0 236.15 8.229 A 20.205 20.205 0 0 0 235.49 8.218 Q 234.889 8.218 234.343 8.256 A 12.424 12.424 0 0 0 233.425 8.354 Z M 18.625 8.629 L 18.625 8.154 L 29.875 8.154 L 29.875 8.629 L 18.625 8.629 Z M 234.1 2.979 L 234.1 7.879 L 233.35 7.679 Q 234.354 7.749 235.161 7.754 A 19.775 19.775 0 0 0 235.275 7.754 A 6.605 6.605 0 0 0 236.301 7.68 Q 236.843 7.595 237.273 7.41 A 2.64 2.64 0 0 0 238.15 6.817 A 3.159 3.159 0 0 0 238.971 5.195 A 4.517 4.517 0 0 0 239.05 4.329 A 4.066 4.066 0 0 0 238.925 3.295 A 3.009 3.009 0 0 0 238.263 2.042 Q 237.475 1.154 235.775 1.154 A 7.955 7.955 0 0 0 235.448 1.16 Q 235.121 1.174 234.903 1.217 A 1.507 1.507 0 0 0 234.75 1.254 A 0.718 0.718 0 0 0 234.364 1.545 A 1.079 1.079 0 0 0 234.263 1.729 A 1.426 1.426 0 0 0 234.184 1.979 Q 234.123 2.248 234.106 2.653 A 7.916 7.916 0 0 0 234.1 2.979 Z M 41.7 8.629 L 37.85 8.629 L 37.85 8.154 L 41.775 8.154 A 5.395 5.395 0 0 0 42.306 8.13 Q 43.038 8.057 43.375 7.767 A 1.125 1.125 0 0 0 43.679 7.33 Q 43.825 6.971 43.825 6.429 A 0.033 0.033 0 0 1 43.843 6.4 Q 43.877 6.379 43.975 6.379 A 0.687 0.687 0 0 1 44.022 6.381 Q 44.125 6.388 44.125 6.429 L 44.1 8.404 A 34.372 34.372 0 0 0 44.102 8.743 Q 44.106 9.211 44.125 9.473 A 4.85 4.85 0 0 0 44.125 9.479 L 44.15 10.654 A 0.033 0.033 0 0 1 44.132 10.683 Q 44.098 10.704 44 10.704 A 0.687 0.687 0 0 1 43.953 10.703 Q 43.85 10.696 43.85 10.654 Q 43.85 9.529 43.375 9.079 A 1.32 1.32 0 0 0 42.951 8.818 Q 42.553 8.659 41.939 8.634 A 5.826 5.826 0 0 0 41.7 8.629 Z M 141.775 9.354 L 142 8.904 L 148.475 8.904 L 148.65 9.354 L 141.775 9.354 Z M 251.025 10.154 L 251 9.854 L 256.7 9.754 L 256.7 10.129 L 251.025 10.154 Z M 270.875 7.704 L 270.875 7.179 A 24.169 24.169 0 0 0 272.071 7.147 Q 273.227 7.089 274.7 6.929 Q 274.76 6.929 274.804 7.033 A 0.614 0.614 0 0 1 274.825 7.092 A 0.988 0.988 0 0 1 274.855 7.226 Q 274.875 7.348 274.875 7.504 Q 274.875 7.704 274.8 7.904 Q 274.725 8.104 274.625 8.079 A 11.467 11.467 0 0 0 273.106 7.803 A 10.383 10.383 0 0 0 272.863 7.779 A 18.55 18.55 0 0 0 272.058 7.728 Q 271.508 7.704 270.875 7.704 Z M 278.5 16.804 Q 278.05 16.804 277.775 16.542 A 0.869 0.869 0 0 1 277.519 16.055 A 1.257 1.257 0 0 1 277.5 15.829 Q 277.5 15.404 277.775 15.154 A 0.938 0.938 0 0 1 278.224 14.931 A 1.351 1.351 0 0 1 278.5 14.904 A 1.444 1.444 0 0 1 278.781 14.93 Q 279.055 14.984 279.225 15.154 A 0.834 0.834 0 0 1 279.453 15.592 A 1.213 1.213 0 0 1 279.475 15.829 A 1.308 1.308 0 0 1 279.443 16.128 A 0.877 0.877 0 0 1 279.225 16.542 A 0.803 0.803 0 0 1 278.855 16.759 Q 278.697 16.804 278.5 16.804 Z" vector-effect="non-scaling-stroke"/></g></svg>